<?xml version="1.0" encoding="UTF-8" standalone="no"?>
<svg
  id="svg8"
  version="1.1"
  viewBox="0 0 936.625 702.46875"
  height="2655"
  width="3540"
  xml:space="preserve"
  xmlns:xlink="http://www.w3.org/1999/xlink"
  xmlns="http://www.w3.org/2000/svg"
  xmlns:svg="http://www.w3.org/2000/svg"
  xmlns:rdf="http://www.w3.org/1999/02/22-rdf-syntax-ns#"
  xmlns:cc="http://creativecommons.org/ns#"
  xmlns:dc="http://purl.org/dc/elements/1.1/"><style
   id="style2" /><defs
   id="defs2"><linearGradient
    id="linearGradient1012"><stop
     style="stop-color:#fce7c0;stop-opacity:1;"
     offset="0"
     id="stop1010" /><stop
     style="stop-color:#f8b178;stop-opacity:1;"
     offset="1"
     id="stop1008" /></linearGradient><linearGradient
    id="linearGradient1002"><stop
     style="stop-color:#fccda1;stop-opacity:0.73081267;"
     offset="0"
     id="stop1000" /><stop
     style="stop-color:#f28c38;stop-opacity:1;"
     offset="1"
     id="stop998" /></linearGradient><linearGradient
    id="linearGradient981-3"><stop
     style="stop-color:#e57519;stop-opacity:1;"
     offset="0"
     id="stop977" /><stop
     style="stop-color:#b9430a;stop-opacity:1;"
     offset="0.30578846"
     id="stop5411" /><stop
     style="stop-color:#861300;stop-opacity:1;"
     offset="0.90444613"
     id="stop3957" /><stop
     style="stop-color:#841200;stop-opacity:1;"
     offset="1"
     id="stop979" /></linearGradient><linearGradient
    id="linearGradient1292"><stop
     style="stop-color:#ffffff;stop-opacity:0.99949884"
     offset="0"
     id="stop1288" /><stop
     style="stop-color:#ffffff;stop-opacity:0.84484982"
     offset="0.30000001"
     id="stop1294" /><stop
     style="stop-color:#000000;stop-opacity:1"
     offset="1"
     id="stop1290" /></linearGradient><linearGradient
    id="linearGradient1056"><stop
     style="stop-color:#fddabd;stop-opacity:1"
     offset="0"
     id="stop1066" /><stop
     style="stop-color:#f18730;stop-opacity:1"
     offset="1"
     id="stop1068" /></linearGradient><radialGradient
    xlink:href="#linearGradient1056"
    id="radialGradient1060"
    cx="469.35999"
    cy="375.07516"
    fx="469.35999"
    fy="375.07516"
    r="304.13763"
    gradientTransform="matrix(1,0,0,0.9833607,1.2696445,6.2409896)"
    gradientUnits="userSpaceOnUse" /><radialGradient
    xlink:href="#linearGradient1292"
    id="radialGradient1286"
    cx="569.7049"
    cy="411.10614"
    fx="569.7049"
    fy="411.10614"
    r="4.8200383"
    gradientTransform="matrix(1.5424876,0,0,1.8068228,-309.0579,-331.68981)"
    gradientUnits="userSpaceOnUse" /><radialGradient
    xlink:href="#linearGradient1292"
    id="radialGradient1286-8"
    cx="569.7049"
    cy="411.10614"
    fx="569.7049"
    fy="411.10614"
    r="4.8200383"
    gradientTransform="matrix(1.5424876,0,0,1.8068228,-508.35945,-331.28991)"
    gradientUnits="userSpaceOnUse" /><filter
    style="color-interpolation-filters:sRGB"
    id="filter957"><feColorMatrix
     id="feColorMatrix967"
     type="saturate"
     values="1" /><feComposite
     id="feComposite959"
     operator="lighter"
     in2="SourceGraphic"
     result="result1" /><feComposite
     id="feComposite975"
     operator="lighter"
     in2="SourceGraphic"
     result="result1" /></filter><radialGradient
    xlink:href="#linearGradient981-3"
    id="radialGradient983"
    cx="1778.0691"
    cy="1683.1403"
    fx="1778.0691"
    fy="1683.1403"
    r="1223.1125"
    gradientTransform="matrix(0.91458998,-5.3676864e-8,0,0.76872856,149.98199,-142.99368)"
    gradientUnits="userSpaceOnUse" /><radialGradient
    xlink:href="#linearGradient1002"
    id="radialGradient1004"
    cx="188.51596"
    cy="317.94998"
    fx="188.51596"
    fy="317.94998"
    r="94.882744"
    gradientTransform="matrix(-1.0338827,0.52141496,-0.91577599,-1.8158379,666.21183,767.80367)"
    gradientUnits="userSpaceOnUse" /><radialGradient
    xlink:href="#linearGradient1012"
    id="radialGradient1014"
    cx="161.44695"
    cy="224.23174"
    fx="161.44695"
    fy="224.23174"
    r="136.57753"
    gradientTransform="matrix(0.74473079,-0.03514197,0.04241755,0.89891367,-6.4710704,143.31165)"
    gradientUnits="userSpaceOnUse" /></defs><metadata
   id="metadata5"><rdf:RDF><cc:Work
     rdf:about=""><dc:format>image/svg+xml</dc:format><dc:type
      rdf:resource="http://purl.org/dc/dcmitype/StillImage" /></cc:Work></rdf:RDF></metadata><g
   id="layer1"
   style="display:inline"><use
    x="0"
    y="0"
    xlink:href="#g1085"
    id="use1087"
    width="100%"
    height="100%"
    transform="matrix(-1,0,0,1,936.37441,0)"
    style="display:inline;opacity:1" /><g
    id="g349"
    style="display:inline;opacity:1"><path
     id="use9606"
     style="display:inline;opacity:0.9;fill:none;stroke:#000000;stroke-width:10;stroke-linecap:round;stroke-linejoin:round;stroke-dasharray:none;stroke-opacity:1;stop-color:#000000"
     d="m 814.64202,460.86769 c 6.23858,-6.49331 12.10463,-20.04864 11.86064,-34.57762 -0.48091,-28.63686 -19.48477,-30.1323 -31.67225,-33.62798" /><path
     id="use9604"
     style="fill:none;fill-rule:evenodd;stroke:#000000;stroke-width:10;stroke-linecap:round;stroke-linejoin:round;stroke-dasharray:none"
     d="m 878.11877,409.01712 c 3.6148,-17.39169 -8.21349,-37.69084 -23.38035,-45.45406 -17.92217,-9.17354 -50.97933,0.0239 -59.72638,8.99895" /></g><g
    id="g1085"
    style="display:inline;opacity:1"><path
     id="path992"
     style="display:inline;opacity:1;fill:url(#radialGradient1014);fill-opacity:1;fill-rule:nonzero;stroke:#000002;stroke-width:9;stroke-linecap:round;stroke-linejoin:round;stroke-miterlimit:2.4;stroke-dasharray:none;stroke-opacity:1;paint-order:normal"
     d="m 230.70423,402.54069 c -1e-5,93.55559 92.16782,186.38166 -6.93274,186.38166 -45.98894,0 -97.26685,-12.43978 -134.349008,-41.03169 C 69.736632,532.71204 50.775379,513.86307 37.304492,492.34074 23.029367,469.53349 14.818514,444.30063 8.4947235,416.93817 -1.1425411,375.23861 2.4298203,324.00323 28.580259,290.12278 46.052334,267.486 78.55388,256.06686 107.14661,255.67567 c 24.48998,-0.33506 50.33085,10.76977 68.07491,27.6523 31.75413,30.21236 55.48271,61.10212 55.48271,119.21272 z" /><path
     id="path995"
     style="display:inline;opacity:1;mix-blend-mode:normal;fill:url(#radialGradient1004);fill-opacity:1;fill-rule:nonzero;stroke:none;stroke-width:8.99999;stroke-linecap:round;stroke-linejoin:round;stroke-miterlimit:2.4;stroke-dasharray:none;stroke-opacity:1;paint-order:normal"
     d="m 211.6351,422.42833 c 0,67.38616 10.93385,149.46181 -11.85658,146.71668 C 185.71255,567.45075 127.46941,552.13037 98.342298,530.70492 72.637912,511.79718 52.947369,484.196 39.301442,455.35147 29.592368,434.82859 24.367944,411.57305 24.493496,388.86977 c 0.155384,-28.09788 1.550314,-60.23623 19.23538,-82.07091 16.534467,-20.41411 45.113403,-35.32288 71.322354,-33.52971 61.37164,4.19894 96.58387,81.77302 96.58387,149.15918 z" /></g><g
    id="g353"
    style="display:inline;opacity:1"><path
     id="path8875"
     style="display:inline;opacity:0.9;fill:none;stroke:#000000;stroke-width:10;stroke-linecap:round;stroke-linejoin:round;stroke-dasharray:none;stroke-opacity:1;stop-color:#000000"
     d="m 127.68344,473.02778 c -6.23858,-6.49331 -16.00925,-23.59287 -12.86972,-35.91695 3.4849,-13.67979 10.27677,-24.19504 31.61899,-28.17393" /><path
     id="path5107"
     style="fill:none;fill-rule:evenodd;stroke:#000000;stroke-width:10;stroke-linecap:round;stroke-linejoin:round;stroke-dasharray:none"
     d="m 79.154725,408.89885 c -6.0953,-19.07227 3.770664,-37.83789 17.894618,-46.68331 13.565177,-8.49548 32.764477,-2.64378 47.841227,4.11133" /></g></g><g
   id="layer4"><path
    style="display:inline;opacity:1;fill:none;fill-rule:evenodd;stroke:#000000;stroke-width:10.065;stroke-linecap:round;stroke-linejoin:round;stroke-dasharray:none;stroke-opacity:1"
    d="M 418.67637,55.873369 C 413.5756,41.842455 406.88041,32.582403 391.99513,30.691748"
    id="path1412" /><path
    style="display:inline;opacity:1;fill:none;fill-rule:evenodd;stroke:#000000;stroke-width:10.065;stroke-linecap:round;stroke-linejoin:round;stroke-dasharray:none;stroke-opacity:1"
    d="M 439.58405,49.702595 C 436.41631,31.813237 432.68442,17.549997 417.15852,16.017668"
    id="path1412-6" /><path
    style="display:inline;opacity:1;fill:none;fill-rule:evenodd;stroke:#000000;stroke-width:10.065;stroke-linecap:round;stroke-linejoin:round;stroke-dasharray:none;stroke-opacity:1"
    d="M 465.65985,46.591752 C 463.24598,30.591117 458.51096,27.068469 452.91301,9.2833952"
    id="path1412-6-7" /></g><g
   id="layer2"><ellipse
    style="display:inline;opacity:1;fill:#f8b178;fill-opacity:1;fill-rule:evenodd;stroke:none;stroke-width:11.3108;stroke-linecap:round;stroke-linejoin:round;stroke-miterlimit:4;stroke-dasharray:none;stroke-opacity:1"
    id="path1341"
    cx="470.69235"
    cy="375.1217"
    rx="322.66022"
    ry="321.4209" /><path
    id="ellipse4669"
    style="display:inline;opacity:1;fill:#c68859;fill-opacity:1;fill-rule:evenodd;stroke:none;stroke-width:10.6648;stroke-linecap:round;stroke-linejoin:round;stroke-miterlimit:4;stroke-dasharray:none;stroke-opacity:1"
    d="M 471.04351,53.700598 C 313.23599,53.782191 179.96397,163.09461 159.57612,309.17248 c 0,0 114.69341,-127.5131 311.43115,-127.5131 198.83683,0 311.67476,127.5131 311.67476,127.5131 C 762.28574,163.03434 628.91617,53.701973 471.04351,53.700598 Z" /><ellipse
    style="display:inline;opacity:1;fill:url(#radialGradient1060);fill-opacity:1;fill-rule:evenodd;stroke:none;stroke-width:0.529167;stroke-opacity:1"
    id="path141"
    cx="470.62988"
    cy="375.07516"
    rx="303.87305"
    ry="298.81241" /><path
    id="path3214"
    style="display:inline;opacity:1;mix-blend-mode:normal;fill:url(#radialGradient983);fill-opacity:1;fill-rule:nonzero;stroke:none;stroke-width:42.7502;stroke-linecap:round;stroke-linejoin:round;stroke-miterlimit:2.4;stroke-dasharray:none;stroke-opacity:1;paint-order:normal"
    d="M 671.78533,1099.3648 C 858.42056,553.46128 1313.3565,288.23719 1778.9947,288.23719 c 465.6382,0 941.9659,287.12503 1101.0908,806.73171 0,0 -130.272,-252.63929 -482.1038,-253.77677 -351.8319,-1.13748 -619.2231,399.31037 -619.2231,399.31037 0,0 -353.9594,-394.48265 -620.1267,-399.4376 -266.16727,-4.95496 -486.84657,258.2999 -486.84657,258.2999 z"
    transform="scale(0.26458333)" /><path
    id="use1366"
    style="display:inline;opacity:1;mix-blend-mode:multiply;fill:none;fill-opacity:1;fill-rule:nonzero;stroke:#000000;stroke-width:42.7502;stroke-linecap:butt;stroke-linejoin:round;stroke-miterlimit:2.4;stroke-dasharray:none;stroke-opacity:1;paint-order:normal"
    d="m 2986.7611,1245.0313 c -21.4792,-34.8653 -215.508,-402.00189 -591.6017,-407.93733 -313.3742,-4.94561 -616.1647,408.96983 -616.1647,408.96983 0,0 -317.3058,-402.28156 -620.9834,-403.2532 -364.76773,-1.16709 -561.17009,355.7093 -584.40192,390.664"
    transform="scale(0.26458333)" /><ellipse
    style="display:inline;opacity:1;fill:none;fill-opacity:1;fill-rule:evenodd;stroke:#000000;stroke-width:11.3108;stroke-linecap:round;stroke-linejoin:round;stroke-miterlimit:4;stroke-dasharray:none;stroke-opacity:1"
    id="ellipse421"
    cx="470.69235"
    cy="375.1217"
    rx="322.66022"
    ry="321.4209" /></g><g
   id="layer3"
   style="display:inline;opacity:1"><g
    id="g1298"
    style="display:inline;opacity:1"><ellipse
     style="display:inline;fill:#000000;fill-opacity:1;fill-rule:evenodd;stroke:none;stroke-width:0.541898"
     id="path1272"
     cx="582.99329"
     cy="424.54807"
     rx="27.244244"
     ry="47.548489"
     transform="matrix(0.99942658,0.0338603,-0.03299524,0.99945551,0,0)" /><ellipse
     style="fill:url(#radialGradient1286);fill-opacity:1;fill-rule:evenodd;stroke:none;stroke-width:0.868831"
     id="path1278"
     cx="569.7049"
     cy="411.10614"
     rx="7.5649242"
     ry="8.8613214" /></g><g
    id="g1336"
    style="display:inline;opacity:1"><ellipse
     style="display:inline;fill:#000000;fill-opacity:1;fill-rule:evenodd;stroke:none;stroke-width:0.541898"
     id="path1272-9"
     cx="382.75562"
     cy="431.73199"
     rx="27.244244"
     ry="47.548489"
     transform="matrix(0.99942658,0.0338603,-0.03299524,0.99945551,0,0)" /><ellipse
     style="fill:url(#radialGradient1286-8);fill-opacity:1;fill-rule:evenodd;stroke:none;stroke-width:0.868831"
     id="path1278-7"
     cx="370.40335"
     cy="411.50604"
     rx="7.5649242"
     ry="8.8613214" /></g><path
    style="display:inline;fill:none;fill-rule:evenodd;stroke:#000000;stroke-width:10.265;stroke-linecap:round;stroke-linejoin:round;stroke-dasharray:none;stroke-opacity:1"
    id="path1124"
    d="m 355.26315,581.43494 c 9.34464,0.22093 5.97239,10.48964 -0.29786,12.59861 -8.78411,2.95449 -17.09251,-4.68686 -18.40508,-13.0408 -1.85013,-11.7753 7.87529,-22.01884 19.2601,-23.1236 14.20933,-1.37883 26.27976,10.3568 27.2078,24.22223 1.09454,16.35299 -12.46747,30.09074 -28.51043,30.87441 -10.37678,0.50688 -20.50794,-4.2839 -26.93314,-12.40411"
    transform="matrix(0.84111584,-0.26184882,-0.22537631,-0.97723308,110.67533,1208.0134)" /><use
    x="0"
    y="0"
    xlink:href="#path1124"
    id="use1126"
    transform="translate(382.54114,-6.5670273)" /><g
    id="g1177"><path
     style="fill:none;fill-rule:evenodd;stroke:#000000;stroke-width:12.665;stroke-linecap:round;stroke-linejoin:round;stroke-dasharray:none;stroke-opacity:1"
     d="m 338.82975,555.34627 c -11.67558,11.8615 -15.90591,15.36535 -22.44686,23.7538 -6.25157,8.01733 -9.50755,18.26943 -9.50755,18.26943"
     id="path287" /><path
     style="fill:none;fill-rule:evenodd;stroke:#000000;stroke-width:12.665;stroke-linecap:round;stroke-linejoin:round;stroke-dasharray:none;stroke-opacity:1"
     d="m 603.83342,558.92837 c 13.07907,8.90948 14.74928,11.02766 21.29023,19.41611 6.25157,8.01733 9.50755,18.26943 9.50755,18.26943"
     id="path287-3" /><path
     id="path1171"
     style="opacity:1;fill:none;stroke:#000000;stroke-width:12.98;stroke-linecap:round;stroke-linejoin:round;stroke-dasharray:none;stop-color:#000000"
     d="m 619.7033,576.80804 c -39.99452,42.68631 -85.65102,67.97342 -148.0938,67.40269 -54.97086,-0.50244 -99.97199,-23.90085 -150.98848,-62.73505" /></g></g></svg>
