<?xml version="1.0" encoding="UTF-8"?>
<svg height="16px" viewBox="0 0 16 16" width="16px" xmlns="http://www.w3.org/2000/svg">
    <path d="m 0 12 h 5 v 2 h -5 z m 0 0"/>
    <path d="m 5 12 v 2 c 1.105469 0 2 0.894531 2 2 h 2 c 0 -2.210938 -1.789062 -4 -4 -4 z m 0 0"/>
    <path d="m 16 12 h -5 v 2 h 5 z m 0 0"/>
    <path d="m 11 12 c -2.210938 0 -4 1.789062 -4 4 h 2 c 0 -1.105469 0.894531 -2 2 -2 z m 0 0"/>
    <path d="m 0 0 h 4 v 3 h -4 z m 0 0"/>
    <path d="m 5 0 c 0.730469 0 1.410156 0.195312 2 0.539062 v 3 c -0.589844 -0.34375 -1.269531 -0.539062 -2 -0.539062 z m 0 0"/>
    <path d="m 5 4 c 0.730469 0 1.410156 0.195312 2 0.539062 v 4 c -0.589844 -0.34375 -1.269531 -0.539062 -2 -0.539062 h -5 v -4 z m 0 0"/>
    <path d="m 0 9 v 2 h 2 v -2 z m 3 0 v 2 h 2 c 0.730469 0 1.410156 0.195312 2 0.539062 v -2 c -0.589844 -0.34375 -1.269531 -0.539062 -2 -0.539062 z m 0 0"/>
    <path d="m 11 3 c -0.730469 0 -1.410156 0.195312 -2 0.539062 v 8 c 0.589844 -0.34375 1.269531 -0.539062 2 -0.539062 h 5 v -8 z m 0 0"/>
    <path d="m 16 0 v 2 h -2 v -2 z m -3 0 v 2 h -2 c -0.730469 0 -1.410156 0.195312 -2 0.539062 v -2 c 0.589844 -0.34375 1.269531 -0.539062 2 -0.539062 z m 0 0"/>
</svg>
