<?xml version="1.0" encoding="UTF-8" standalone="no"?>
<svg
   width="100%"
   height="100%"
   viewBox="0 0 128 128"
   version="1.1"
   xml:space="preserve"
   style="fill-rule:evenodd;clip-rule:evenodd;stroke-linejoin:round;stroke-miterlimit:2;"
   id="svg12"
   sodipodi:docname="it.mijorus.collector.svg"
   inkscape:version="1.3.2 (091e20e, 2023-11-25, custom)"
   xmlns:inkscape="http://www.inkscape.org/namespaces/inkscape"
   xmlns:sodipodi="http://sodipodi.sourceforge.net/DTD/sodipodi-0.dtd"
   xmlns:xlink="http://www.w3.org/1999/xlink"
   xmlns="http://www.w3.org/2000/svg"
   xmlns:svg="http://www.w3.org/2000/svg"><sodipodi:namedview
   id="namedview12"
   pagecolor="#ffffff"
   bordercolor="#000000"
   borderopacity="0.25"
   inkscape:showpageshadow="2"
   inkscape:pageopacity="0.0"
   inkscape:pagecheckerboard="0"
   inkscape:deskcolor="#d1d1d1"
   inkscape:zoom="3.1405485"
   inkscape:cx="40.279588"
   inkscape:cy="30.408701"
   inkscape:window-width="2560"
   inkscape:window-height="1351"
   inkscape:window-x="-9"
   inkscape:window-y="-9"
   inkscape:window-maximized="1"
   inkscape:current-layer="svg12" />
    <path
   d="M20,22L108,22C112.418,22 116,25.582 116,30L116,108C116,112.418 112.418,116 108,116L20,116C15.582,116 12,112.418 12,108L12,30C12,25.582 15.582,22 20,22Z"
   style="fill:url(#_Linear1);fill-rule:nonzero;"
   id="path1" />
    <path
   d="m 20,12 h 88 c 4.418,0 8,3.582 8,8 v 80 c 0,4.418 -3.582,8 -8,8 H 20 c -4.418,0 -8,-3.582 -8,-8 V 20 c 0,-4.418 3.582,-8 8,-8 z"
   style="fill:url(#linearGradient23);fill-rule:nonzero;fill-opacity:1"
   id="path2" />
    
    <g
   transform="matrix(0.96,0,0,0.96,-128.94569,14.24)"
   id="g4"
   style="fill:url(#linearGradient25)">
        <path
   d="m 156.19309,1.6666667 h 89.584 c 3.312,0 5.208,2.063 5.208,5.375 V 88.291667 c 0,3.313 -1.896,5.375 -5.208,5.375 h -89.584 c -3.312,0 -5.208,-2.062 -5.208,-5.375 V 7.0416667 c 0,-3.312 1.896,-5.375 5.208,-5.375 z"
   style="fill:url(#linearGradient25);fill-rule:nonzero"
   id="path4" />
    </g>
    
    <defs
   id="defs12"><linearGradient
   id="linearGradient24"
   inkscape:collect="always"><stop
     style="stop-color:#000725;stop-opacity:1;"
     offset="0"
     id="stop24" /><stop
     style="stop-color:#031050;stop-opacity:1;"
     offset="1"
     id="stop25" /></linearGradient><linearGradient
   id="linearGradient21"
   inkscape:collect="always"><stop
     style="stop-color:#908f89;stop-opacity:1;"
     offset="0"
     id="stop23" /><stop
     style="stop-color:#c0bfbc;stop-opacity:1;"
     offset="1"
     id="stop22" /></linearGradient>
        <linearGradient
   id="_Linear1"
   x1="0"
   y1="0"
   x2="1"
   y2="0"
   gradientUnits="userSpaceOnUse"
   gradientTransform="matrix(104,0,0,104,12,64)"><stop
     offset="0"
     style="stop-color:rgb(94,92,100);stop-opacity:1"
     id="stop5" /><stop
     offset="0.05"
     style="stop-color:rgb(192,191,188);stop-opacity:1"
     id="stop6" /><stop
     offset="0.1"
     style="stop-color:rgb(154,153,150);stop-opacity:1"
     id="stop7" /><stop
     offset="0.9"
     style="stop-color:rgb(154,153,150);stop-opacity:1"
     id="stop8" /><stop
     offset="0.95"
     style="stop-color:rgb(192,191,188);stop-opacity:1"
     id="stop9" /><stop
     offset="1"
     style="stop-color:rgb(94,92,100);stop-opacity:1"
     id="stop10" /></linearGradient>
        <radialGradient
   id="_Radial2"
   cx="0"
   cy="0"
   r="1"
   gradientUnits="userSpaceOnUse"
   gradientTransform="matrix(0,-92,92,0,200.98509,93.666667)"><stop
     offset="0"
     style="stop-color:#0a0c34;stop-opacity:1;"
     id="stop11" /><stop
     offset="1"
     style="stop-color:#101563;stop-opacity:1;"
     id="stop12" /></radialGradient>
    <linearGradient
   inkscape:collect="always"
   xlink:href="#linearGradient21"
   id="linearGradient23"
   x1="67.722748"
   y1="12"
   x2="68.715263"
   y2="108"
   gradientUnits="userSpaceOnUse" /><linearGradient
   inkscape:collect="always"
   xlink:href="#linearGradient24"
   id="linearGradient25"
   x1="150.98509"
   y1="47.666667"
   x2="250.98509"
   y2="47.666667"
   gradientUnits="userSpaceOnUse" /></defs>
<path
   d="m 62.804826,33.034648 c -9.538013,0 -17.317246,7.779233 -17.317246,17.317246 v 34.634493 c 0,1.907602 1.555847,3.463449 3.463449,3.463449 1.907602,0 3.46345,-1.555847 3.46345,-3.463449 V 50.351894 c 0,-5.817514 4.572833,-10.390347 10.390347,-10.390347 5.817515,0 10.390348,4.572833 10.390348,10.390347 v 12.419714 l -4.478132,-4.478132 c -1.35291,-1.35291 -3.544622,-1.35291 -4.897532,0 -1.35291,1.35291 -1.35291,3.544622 0,4.897532 l 10.390348,10.390348 c 1.352909,1.35291 3.544622,1.35291 4.897532,0 L 89.497737,63.191008 c 1.35291,-1.35291 1.35291,-3.544622 0,-4.897532 -0.649396,-0.649397 -1.528787,-1.014683 -2.448766,-1.014683 -0.919978,0 -1.799369,0.365286 -2.448766,1.014683 l -4.478132,4.478132 V 50.351894 c 0,-9.538013 -7.779233,-17.317246 -17.317247,-17.317246 z m 0,0"
   fill="#2e3436"
   id="path1-5"
   style="fill:#e4e4e4;fill-opacity:1;stroke-width:3.46345" /><polygon
   fill="#231f20"
   points="1283.1857,1127.3097 1406.1421,1077.6322 1314.2406,850.1678 1463.913,852.7823 1093.4828,480.8547 1085.4374,1005.6964 1191.2842,899.8454 "
   id="polygon1-7"
   transform="matrix(0.09184395,-0.01793356,0.01808343,0.09108276,-32.224518,42.591639)"
   style="clip-rule:evenodd;fill:#000000;fill-opacity:1;fill-rule:evenodd;stroke:#101010;stroke-width:15.243;stroke-linejoin:round;stroke-miterlimit:2;stroke-dasharray:none;stroke-opacity:1" /><polygon
   fill="#231f20"
   points="1406.1421,1077.6322 1314.2406,850.1678 1463.913,852.7823 1093.4828,480.8547 1085.4374,1005.6964 1191.2842,899.8454 1283.1857,1127.3097 "
   id="polygon1-7-4"
   transform="matrix(0.09184395,-0.01793356,0.01808343,0.09108276,-31.214631,40.522846)"
   style="font-variation-settings:normal;clip-rule:evenodd;opacity:1;vector-effect:none;fill:#1c1c1c;fill-opacity:1;fill-rule:evenodd;stroke:#eeeeee;stroke-width:15.243;stroke-linecap:butt;stroke-linejoin:round;stroke-miterlimit:2;stroke-dasharray:none;stroke-dashoffset:0;stroke-opacity:1;-inkscape-stroke:none;stop-color:#000000;stop-opacity:1" /></svg>
