<?xml version="1.0" encoding="UTF-8"?>
<!--
SPDX-FileCopyrightText: Metadata Cleaner contributors
SPDX-License-Identifier: CC-BY-SA-4.0
-->
<svg width="16" height="16" version="1.1" viewBox="0 0 16 16" xmlns="http://www.w3.org/2000/svg">
 <path d="m7.6499 0.44727c-1.1223-0.076349-2.413 0.18284-3.894 0.87891-2.8329 1.3315-3.8092 3.7993-3.6802 6.2549 0.12901 2.4556 1.2591 4.9424 2.5308 6.7075a0.5 0.5 0 0 0 0.69824 0.11328 0.5 0.5 0 0 0 0.11328-0.69775c-1.1725-1.6274-2.2293-3.997-2.3438-6.1758-0.11447-2.1788 0.60899-4.1233 3.1069-5.2974 1.8232-0.85691 3.1774-0.94676 4.2612-0.6377 1.0838 0.30906 1.9404 1.0403 2.6904 1.9731 0.75008 0.93286 1.3764 2.0549 1.9922 3.0693 0.61579 1.0144 1.2039 1.9371 2.0386 2.4487a0.5 0.5 0 0 0 0.6875-0.16504 0.5 0.5 0 0 0-0.16504-0.6875c-0.52843-0.32389-1.1051-1.1253-1.7061-2.1152-0.60096-0.98997-1.2442-2.1529-2.0679-3.1772-0.82367-1.0244-1.845-1.923-3.1953-2.3081-0.33758-0.096265-0.69279-0.15863-1.0669-0.18408z"/>
 <path d="m7.5493 2.627c-0.90582-0.10092-1.9601 0.12739-3.1826 0.75732-1.8302 0.94311-2.555 2.9426-2.1323 5.1763 0.42272 2.2337 1.9096 4.7725 4.4512 7.1855a0.5 0.5 0 0 0 0.70703-0.018555 0.5 0.5 0 0 0-0.018555-0.70654c-2.4274-2.3047-3.7894-4.7026-4.1572-6.6465-0.36787-1.9439 0.17448-3.3629 1.6079-4.1016 1.4758-0.76046 2.4527-0.80153 3.2217-0.50488 0.76898 0.29665 1.4027 0.99524 2.0127 1.9199 1.22 1.8494 2.2472 4.5481 4.6152 5.6641a0.5 0.5 0 0 0 0.66553-0.23877 0.5 0.5 0 0 0-0.23926-0.66553c-1.8835-0.88757-2.8966-3.3249-4.2065-5.3105-0.65498-0.99284-1.4086-1.8861-2.4873-2.3022-0.26968-0.10403-0.55548-0.17437-0.85742-0.20801z"/>
 <path d="m6.8096 4.7642c-0.20946 0.003825-0.42895 0.033155-0.65625 0.089844-1.078 0.26883-1.7566 1.0172-1.9087 1.9185-0.15211 0.90125 0.117 1.9026 0.60059 2.9414 0.96716 2.0777 2.8531 4.3323 4.7866 5.8682a0.5 0.5 0 0 0 0.70264-0.08008 0.5 0.5 0 0 0-0.08057-0.70264c-1.8042-1.4332-3.6306-3.636-4.502-5.5078-0.43567-0.93591-0.61717-1.7827-0.521-2.3525 0.096174-0.56984 0.36491-0.91533 1.1646-1.1147 0.68329-0.17041 0.96801-0.062078 1.3037 0.24951 0.3357 0.31159 0.67214 0.91749 1.0801 1.688 0.81588 1.541 1.9833 3.7024 4.7881 5.3369a0.5 0.5 0 0 0 0.68408-0.18018 0.5 0.5 0 0 0-0.18066-0.68408c-2.5821-1.5047-3.5942-3.4039-4.4077-4.9404-0.40676-0.76826-0.74738-1.4558-1.2832-1.9531-0.40187-0.373-0.94194-0.58813-1.5703-0.57666z"/>
 <path d="m6.6807 7.0742a0.5 0.5 0 0 0-0.28857 0.64551c1.764 4.6222 5.5332 6.8765 5.5332 6.8765a0.5 0.5 0 0 0 0.68604-0.17139 0.5 0.5 0 0 0-0.17139-0.68604s-3.48-2.0951-5.1138-6.376a0.5 0.5 0 0 0-0.64551-0.28857z"/>
</svg>
